# xmcd CD database file
#
# Track frame offsets:
#	150
#	11555
#	23902
#	55445
#	65292
#	76750
#	88560
#	98967
#	118557
#	126882
#	134877
#	147515
#	156160
#	169850
#	181727
#	203062
#	220052
#
# Disc length: 3237 seconds
#
# Revision: 0
# Processed by: cddbd v1.4PL0 Copyright (c) Steve Scherf et al.
# Submitted via: CDex 1.50
#
DISCID=ed0ca311
DTITLE=Wabi Ryvola - Posledni defile
DYEAR=1995
DGENRE=Country
TTITLE0=Posledni defile
TTITLE1=Na to zapomen
TTITLE2=Zeme tahnoucich oblak
TTITLE3=Nechte me zit
TTITLE4=Strasna Barbora
TTITLE5=Ja bych chtel bejt bohatej
TTITLE6=To mi povidej
TTITLE7=Prazdnej stul
TTITLE8=Bila, bila
TTITLE9=Kamarad les
TTITLE10=Smutna nedele
TTITLE11=Uz tahnou stada snobu
TTITLE12=Hubenej Claim
TTITLE13=Noci
TTITLE14=Velikonoce lampare Tonyho
TTITLE15=Vsim cim jsem byl
TTITLE16=Verim
EXTD=YEAR: 1995
EXTT0=
EXTT1=
EXTT2=
EXTT3=
EXTT4=
EXTT5=
EXTT6=
EXTT7=
EXTT8=
EXTT9=
EXTT10=
EXTT11=
EXTT12=
EXTT13=
EXTT14=
EXTT15=
EXTT16=
PLAYORDER=
